<svg width="22" height="22" viewBox="0 0 22 22" fill="none" xmlns="http://www.w3.org/2000/svg">
<path d="M9.49174 1.1925C10.1815 0.6025 11.3111 0.6025 12.0108 1.1925L13.5902 2.5525C13.8901 2.8125 14.4499 3.0225 14.8497 3.0225H16.5491C17.6087 3.0225 18.4784 3.8925 18.4784 4.9525V6.6525C18.4784 7.0425 18.6883 7.6125 18.9482 7.9125L20.3077 9.49248C20.8974 10.1825 20.8974 11.3125 20.3077 12.0125L18.9482 13.5925C18.6883 13.8925 18.4784 14.4525 18.4784 14.8525V16.5525C18.4784 17.6125 17.6087 18.4825 16.5491 18.4825H14.8497C14.4599 18.4825 13.8901 18.6925 13.5902 18.9525L12.0108 20.3125C11.3211 20.9025 10.1915 20.9025 9.49174 20.3125L7.9123 18.9525C7.61241 18.6925 7.05262 18.4825 6.65278 18.4825H4.92343C3.86383 18.4825 2.99415 17.6125 2.99415 16.5525V14.8425C2.99415 14.4525 2.78423 13.8925 2.53433 13.5925L1.18484 12.0025C0.605055 11.3125 0.605055 10.1925 1.18484 9.50248L2.53433 7.9125C2.78423 7.6125 2.99415 7.0525 2.99415 6.6625V4.9425C2.99415 3.8825 3.86383 3.0125 4.92343 3.0125H6.65278C7.04263 3.0125 7.61241 2.8025 7.9123 2.5425L9.49174 1.1925Z" fill="#1D9BF0" stroke="#3B82F6" stroke-width="1.5" stroke-linecap="round" stroke-linejoin="round"/>
<path d="M7.12305 10.7433L9.53218 13.1633L14.3604 8.32324" stroke="black" stroke-width="2" stroke-linecap="round" stroke-linejoin="round"/>
</svg>
